<svg xmlns="http://www.w3.org/2000/svg"  viewBox="0 0 32 32" width="240px" height="240px"><path fill="#FFF9DD" d="M26,32H6c-3.314,0-6-2.686-6-6V6c0-3.314,2.686-6,6-6h20c3.314,0,6,2.686,6,6v20C32,29.314,29.314,32,26,32 z"/><path fill="#FFD200" d="M24,8H8v16H24V8z M22.52,19.527h-2.867v-4.06L19.647,15.3l-0.02-0.153l-0.02-0.14L19.58,14.88 l-0.033-0.127l-0.08-0.213l-0.053-0.093l-0.06-0.08l-0.06-0.073l-0.067-0.067l-0.073-0.06l-0.08-0.047l-0.087-0.04l-0.093-0.033 L18.8,14.02L18.693,14l-0.107-0.013h-0.113l-0.14,0.007l-0.127,0.013l-0.127,0.027l-0.113,0.033l-0.107,0.04l-0.093,0.053 l-0.093,0.06l-0.08,0.067l-0.08,0.073l-0.067,0.08l-0.06,0.093l-0.053,0.093l-0.047,0.107l-0.04,0.107l-0.033,0.12l-0.027,0.12 l-0.027,0.127l-0.013,0.133l-0.013,0.28v2.4h0.913v1.507H15.18v-4.06L15.173,15.3l-0.02-0.153l-0.02-0.14l-0.027-0.127 l-0.033-0.127l-0.08-0.213l-0.053-0.093l-0.053-0.08l-0.067-0.073l-0.067-0.067l-0.073-0.06L14.6,14.12l-0.087-0.04l-0.093-0.033 l-0.093-0.027L14.22,14l-0.107-0.013H14l-0.14,0.007l-0.127,0.013l-0.127,0.027l-0.113,0.033l-0.1,0.04l-0.1,0.053L13.2,14.22 l-0.08,0.067l-0.073,0.073l-0.073,0.08l-0.06,0.093l-0.053,0.093l-0.047,0.107l-0.04,0.107l-0.033,0.12l-0.027,0.12l-0.02,0.127 l-0.02,0.133l-0.007,0.14v2.54h1.32v1.507h-4.22V18.02h0.913v-3.907H9.766v-1.48h2.9v1.033l0.06-0.107l0.067-0.107l0.073-0.1 l0.08-0.093l0.08-0.087l0.087-0.087l0.093-0.08l0.093-0.073l0.2-0.133l0.113-0.053l0.107-0.053l0.12-0.047l0.12-0.04l0.12-0.033 l0.127-0.033l0.133-0.02l0.133-0.013l0.14-0.013H14.9l0.293,0.027l0.147,0.027l0.14,0.033l0.133,0.04l0.133,0.047l0.133,0.053 L16,12.78l0.127,0.073l0.113,0.073l0.113,0.087l0.1,0.093l0.1,0.1l0.093,0.107l0.087,0.113l0.08,0.127l0.067,0.133l0.067,0.14 L17,13.973l0.06-0.14l0.067-0.127L17.2,13.58l0.073-0.113l0.087-0.113l0.087-0.107l0.093-0.1l0.1-0.093l0.107-0.087l0.113-0.08 l0.113-0.073l0.12-0.067l0.127-0.06l0.267-0.093l0.14-0.04l0.147-0.027l0.153-0.02l0.153-0.013h0.347l0.187,0.02l0.173,0.027 l0.18,0.04l0.167,0.053l0.167,0.06l0.16,0.08l0.153,0.087l0.14,0.1l0.14,0.107l0.12,0.127l0.12,0.133l0.107,0.153l0.093,0.16 l0.08,0.173L21.48,14l0.053,0.2l0.04,0.213l0.027,0.22l0.007,0.24v3.147h0.913V19.527z"/></svg>