<svg xmlns="http://www.w3.org/2000/svg" xmlns:xlink="http://www.w3.org/1999/xlink" viewBox="0,0,256,256" width="40px" height="40px"><g fill="#ffffff" fill-rule="nonzero" stroke="none" stroke-width="1" stroke-linecap="butt" stroke-linejoin="miter" stroke-miterlimit="10" stroke-dasharray="" stroke-dashoffset="0" font-family="none" font-weight="none" font-size="none" text-anchor="none" style="mix-blend-mode: normal"><g transform="scale(5.12,5.12)"><path d="M7,10c-1.64497,0 -3,1.35503 -3,3v24h-4v0.9082c0,0.634 0.44831,1.18164 1.07031,1.30664l3.375,0.67383c0.368,0.074 0.74509,0.11133 1.12109,0.11133h38.86719c0.376,0 0.75209,-0.03733 1.12109,-0.11133l3.37695,-0.67383c0.622,-0.124 1.07031,-0.67164 1.07031,-1.30664v-0.9082h-4.00195v-24c0,-1.64497 -1.35503,-3 -3,-3zM7,12h15c0,0.552 0.448,1 1,1h4c0.552,0 1,-0.448 1,-1h15c0.56503,0 1,0.43497 1,1v24h-38v-24c0,-0.56503 0.43497,-1 1,-1z"></path></g></g></svg>